<?xml version="1.0" encoding="UTF-8"?>
<svg width="300px" height="197px" viewBox="0 0 300 197" version="1.1" xmlns="http://www.w3.org/2000/svg" xmlns:xlink="http://www.w3.org/1999/xlink">
    <title>method-one</title>
    <g id="Page-1" stroke="none" stroke-width="1" fill="none" fill-rule="evenodd">
        <g id="Desktop-HD" transform="translate(-31.000000, -2728.000000)" fill="#000000">
            <g id="method-one" transform="translate(31.000000, 2728.000000)">
                <g transform="translate(100.000000, 0.000000)" fill-rule="nonzero" id="Group">
                    <g>
                        <rect id="Rectangle" x="45.589788" y="51.4161489" width="9.83769157" height="27.3878936"></rect>
                        <path d="M42.5603157,39.8925074 L32.7226039,39.8925074 C32.7226039,53.540733 32.7226039,65.16655 32.7226039,78.8040426 L42.5603157,78.8040426 C42.5603157,69.3942319 42.5603157,49.079634 42.5603157,39.8925074 Z" id="Path"></path>
                        <path d="M100.697373,5.08408298 C100.697373,2.55748723 98.6373327,0.495744681 96.1128229,0.495744681 L4.88717706,0.495744681 C2.36266725,0.495744681 0.302626863,2.55748723 0.302626863,5.08408298 L0.302626863,20.6094479 L100.697373,20.6094479 L100.697373,5.08408298 Z M11.9530982,15.5874649 C10.297242,15.5874649 8.94242843,14.2315117 8.94242843,12.5743074 C8.94242843,10.9172245 10.2972622,9.56127128 11.9530982,9.56127128 C13.6090757,9.56127128 14.9636469,10.9172245 14.9636469,12.5743074 C14.9636469,14.2315117 13.6090555,15.5874649 11.9530982,15.5874649 Z M20.3929384,15.5874649 C18.7370822,15.5874649 17.3822686,14.2315117 17.3822686,12.5743074 C17.3822686,10.9172245 18.7371024,9.56127128 20.3929384,9.56127128 C22.0487745,9.56127128 23.4034871,10.9172245 23.4034871,12.5743074 C23.4034871,14.2315117 22.0487947,15.5874649 20.3929384,15.5874649 Z M28.8325363,15.5874649 C27.146608,15.5874649 25.8219876,14.2315117 25.8219876,12.5743074 C25.8219876,10.9172245 27.146608,9.56127128 28.8325363,9.56127128 C30.4883925,9.56127128 31.8432061,10.9172245 31.8432061,12.5743074 C31.8432061,14.2315117 30.4883925,15.5874649 28.8325363,15.5874649 Z M91.1630267,14.5959479 L38.7972006,14.5959479 C37.6809027,14.5959479 36.7775927,13.6909213 36.7775927,12.5746713 C36.7775927,11.4584213 37.6809027,10.5533947 38.7972006,10.5533947 L91.1630267,10.5533947 C92.2793245,10.5533947 93.1826345,11.4584213 93.1826345,12.5746713 C93.1826345,13.6909213 92.2793447,14.5959479 91.1630267,14.5959479 Z" id="Shape"></path>
                        <rect id="Rectangle" x="19.8573788" y="61.33995" width="9.83577294" height="17.4641128"></rect>
                        <path d="M68.2925633,34.3290649 L58.4568308,34.3290649 C58.4568308,49.6842787 58.4568308,63.3984989 58.4568308,78.8040628 L68.2925633,78.8040628 C68.2925633,67.3560574 68.2925633,45.4146553 68.2925633,34.3290649 Z" id="Path"></path>
                        <path d="M0.302626863,24.6520011 L0.302626863,87.9159574 C0.302626863,90.4425532 2.36266725,92.5042957 4.88717706,92.5042957 L96.1128229,92.5042957 C98.6373327,92.5042957 100.697373,90.4425532 100.697373,87.9159574 L100.697373,24.6520011 L0.302626863,24.6520011 Z M84.1890784,80.32 C84.1890784,81.1569298 83.5106114,81.8359574 82.6743725,81.8359574 C63.2757565,81.8359574 37.7217998,81.8359574 18.3427133,81.8359574 C17.5065149,81.8359574 16.8280075,81.1569298 16.8280075,80.32 L16.8280075,59.8239926 C16.8280075,58.9870628 17.5065149,58.3080351 18.3427133,58.3080351 L29.6931922,58.3080351 L29.6931922,38.37655 C29.6931922,37.5396202 30.3716592,36.8605926 31.207898,36.8605926 L44.0750014,36.8605926 C44.9112402,36.8605926 45.5897073,37.5396202 45.5897073,38.37655 L45.5897073,48.384234 L55.4273988,48.384234 L55.4273988,32.8131074 C55.4273988,31.9761777 56.1058659,31.29715 56.9421047,31.29715 L69.807249,31.29715 C70.6434878,31.29715 71.3219549,31.9761777 71.3219549,32.8131074 L71.3219549,57.2411447 L82.6743725,57.2411447 C83.5106114,57.2411447 84.1890784,57.9201723 84.1890784,58.7571021 L84.1890784,80.32 Z" id="Shape"></path>
                        <rect id="Rectangle" x="71.3220357" y="60.2730394" width="9.83769157" height="18.5310032"></rect>
                    </g>
                </g>
                <text id="Descriptive-Statisti" font-family="AvenirNext-Bold, Avenir Next" font-size="25" font-weight="bold" letter-spacing="-0.141368333">
                    <tspan x="26" y="138">Descriptive Statistics</tspan>
                </text>
                <text id="Used-for-preliminary" font-family="AvenirNext-Medium, Avenir Next" font-size="18" font-weight="400" letter-spacing="-0.1017852">
                    <tspan x="46.512315" y="165">Used for preliminary data </tspan>
                    <tspan x="101.119711" y="190">exploration.</tspan>
                </text>
            </g>
        </g>
    </g>
</svg>